<?xml version="1.0" encoding="utf-8"?>
<!-- Generator: Adobe Illustrator 15.1.0, SVG Export Plug-In  -->
<!DOCTYPE svg PUBLIC "-//W3C//DTD SVG 1.1//EN" "http://www.w3.org/Graphics/SVG/1.1/DTD/svg11.dtd" [
	<!ENTITY ns_flows "http://ns.adobe.com/Flows/1.0/">
]>
<svg version="1.1"
	 xmlns="http://www.w3.org/2000/svg" xmlns:xlink="http://www.w3.org/1999/xlink" xmlns:a="http://ns.adobe.com/AdobeSVGViewerExtensions/3.0/"
	 x="0px" y="0px" width="30px" height="30px" viewBox="0 0 30 30" overflow="visible" enable-background="new 0 0 30 30"
	 xml:space="preserve">
<defs>
</defs>
<path fill="#FFFFFF" d="M15,0C6.72,0,0,6.72,0,15c0,8.28,6.72,15,15,15c8.28,0,15-6.72,15-15C30,6.72,23.28,0,15,0z M15,27.66
	C8.01,27.66,2.34,21.99,2.34,15S8.01,2.34,15,2.34S27.66,8.01,27.66,15S21.99,27.66,15,27.66z M22.72,10.93
	c-0.189-0.84-0.89-1.45-1.729-1.55C19.01,9.16,17,9.16,15,9.16s-4.01,0-5.99,0.22c-0.84,0.1-1.53,0.71-1.73,1.55
	C7,12.13,7,13.43,7,14.66c0,1.229,0,2.54,0.28,3.729c0.19,0.841,0.89,1.461,1.73,1.55C10.99,20.16,13,20.16,15,20.16
	s4.01,0,5.99-0.221c0.84-0.089,1.529-0.709,1.729-1.55C23,17.2,23,15.89,23,14.66C23,13.43,23,12.13,22.72,10.93z M12.93,17.11
	v-5.22l5.089,2.62L12.93,17.11z"/>
</svg>
