<?xml version="1.0" encoding="utf-8"?>
<!-- Generator: Adobe Illustrator 15.1.0, SVG Export Plug-In  -->
<!DOCTYPE svg PUBLIC "-//W3C//DTD SVG 1.1//EN" "http://www.w3.org/Graphics/SVG/1.1/DTD/svg11.dtd" [
	<!ENTITY ns_flows "http://ns.adobe.com/Flows/1.0/">
]>
<svg version="1.1"
	 xmlns="http://www.w3.org/2000/svg" xmlns:xlink="http://www.w3.org/1999/xlink" xmlns:a="http://ns.adobe.com/AdobeSVGViewerExtensions/3.0/"
	 x="0px" y="0px" width="30px" height="30px" viewBox="0 0 30 30" overflow="visible" enable-background="new 0 0 30 30"
	 xml:space="preserve">
<defs>
</defs>
<path fill-rule="evenodd" clip-rule="evenodd" fill="#FFFFFF" d="M20.09,17.681c1.33,0,2.41,1.079,2.41,2.409s-1.08,2.41-2.41,2.41
	s-2.409-1.08-2.409-2.41c0-0.109,0.02-0.21,0.029-0.32l-6.08-3.08c-0.44,0.45-1.05,0.721-1.72,0.721c-1.33,0-2.41-1.08-2.41-2.41
	s1.08-2.41,2.41-2.41c0.66,0,1.25,0.26,1.69,0.69l6.11-3.07c-0.01-0.1-0.029-0.2-0.029-0.3c0-1.33,1.079-2.41,2.409-2.41
	s2.41,1.08,2.41,2.41s-1.08,2.41-2.41,2.41c-0.68,0-1.3-0.29-1.739-0.75l-6.071,3.05c0.02,0.12,0.04,0.25,0.04,0.38
	c0,0.12-0.02,0.23-0.04,0.34l6.081,3.08C18.8,17.96,19.41,17.681,20.09,17.681z M15,2.34C8.01,2.34,2.34,8.01,2.34,15
	S8.01,27.66,15,27.66S27.66,21.99,27.66,15S21.99,2.34,15,2.34z M15,30C6.72,30,0,23.28,0,15C0,6.72,6.72,0,15,0
	c8.28,0,15,6.72,15,15C30,23.28,23.28,30,15,30z"/>
</svg>
