<?xml version="1.0" encoding="utf-8"?>
<!-- Generator: Adobe Illustrator 15.1.0, SVG Export Plug-In  -->
<!DOCTYPE svg PUBLIC "-//W3C//DTD SVG 1.1//EN" "http://www.w3.org/Graphics/SVG/1.1/DTD/svg11.dtd" [
	<!ENTITY ns_flows "http://ns.adobe.com/Flows/1.0/">
]>
<svg version="1.1"
	 xmlns="http://www.w3.org/2000/svg" xmlns:xlink="http://www.w3.org/1999/xlink" xmlns:a="http://ns.adobe.com/AdobeSVGViewerExtensions/3.0/"
	 x="0px" y="0px" width="30px" height="30px" viewBox="0 0 30 30" overflow="visible" enable-background="new 0 0 30 30"
	 xml:space="preserve">
<defs>
</defs>
<path fill="#FFFFFF" d="M15,0C6.72,0,0,6.72,0,15c0,8.28,6.72,15,15,15c8.28,0,15-6.72,15-15C30,6.72,23.28,0,15,0z M15,27.66
	C8.01,27.66,2.34,21.99,2.34,15S8.01,2.34,15,2.34S27.66,8.01,27.66,15S21.99,27.66,15,27.66z M19.14,12.14
	c-0.34,0-0.67-0.14-0.899-0.38c-0.24-0.23-0.38-0.56-0.38-0.9c0-0.33,0.14-0.66,0.38-0.9c0.229-0.23,0.56-0.37,0.899-0.37
	c0.33,0,0.66,0.14,0.9,0.37c0.229,0.24,0.37,0.57,0.37,0.9c0,0.34-0.141,0.67-0.37,0.9C19.8,12,19.47,12.14,19.14,12.14z M15,18.5
	c-1.93,0-3.5-1.569-3.5-3.5c0-1.93,1.57-3.5,3.5-3.5c1.931,0,3.5,1.57,3.5,3.5C18.5,16.931,16.931,18.5,15,18.5z M18.14,22
	c2.13,0,3.86-1.729,3.86-3.86v-6.28C22,9.73,20.27,8,18.14,8h-6.28C9.73,8,8,9.73,8,11.86v6.28C8,20.271,9.73,22,11.86,22H18.14z"/>
</svg>
