<?xml version="1.0" encoding="utf-8"?>
<!-- Generator: Adobe Illustrator 15.1.0, SVG Export Plug-In  -->
<!DOCTYPE svg PUBLIC "-//W3C//DTD SVG 1.1//EN" "http://www.w3.org/Graphics/SVG/1.1/DTD/svg11.dtd" [
	<!ENTITY ns_flows "http://ns.adobe.com/Flows/1.0/">
]>
<svg version="1.1"
	 xmlns="http://www.w3.org/2000/svg" xmlns:xlink="http://www.w3.org/1999/xlink" xmlns:a="http://ns.adobe.com/AdobeSVGViewerExtensions/3.0/"
	 x="0px" y="0px" width="30px" height="30px" viewBox="0 0 30 30" overflow="visible" enable-background="new 0 0 30 30"
	 xml:space="preserve">
<defs>
</defs>
<path fill-rule="evenodd" clip-rule="evenodd" fill="#FFFFFF" d="M21,11.72v0.05v0.04v0.02c0.21,5.38-3.67,9.73-8.66,9.73
	c-1.76,0-3.42-0.54-4.84-1.471c2.1,0.36,3.79-0.771,4.29-1.38c-1.4,0-2.67-1.29-2.77-2.271c0.28,0.051,0.92,0.11,1.29-0.1
	c-1.89-0.56-2.41-2.1-2.39-3.26c0.32,0.33,0.99,0.41,1.35,0.38c-1.06-0.71-1.87-2.66-0.94-4.4c1.53,2.14,4.24,3.39,6.56,3.45
	c-0.05-0.24-0.08-0.48-0.08-0.74c0-1.84,1.39-3.33,3.089-3.33c0.891,0,1.681,0.39,2.24,1.03c0.5,0,1.5-0.44,1.93-0.74
	c-0.159,0.68-0.829,1.55-1.289,1.81c0.71-0.08,1.47-0.37,1.72-0.53C22.061,10.79,21.45,11.39,21,11.72z M15,2.34
	C8.01,2.34,2.34,8.01,2.34,15S8.01,27.66,15,27.66S27.66,21.99,27.66,15S21.99,2.34,15,2.34z M15,30C6.72,30,0,23.28,0,15
	C0,6.72,6.72,0,15,0c8.28,0,15,6.72,15,15C30,23.28,23.28,30,15,30z"/>
</svg>
