<?xml version="1.0" encoding="utf-8"?>
<!-- Generator: Adobe Illustrator 15.1.0, SVG Export Plug-In  -->
<!DOCTYPE svg PUBLIC "-//W3C//DTD SVG 1.1//EN" "http://www.w3.org/Graphics/SVG/1.1/DTD/svg11.dtd" [
	<!ENTITY ns_flows "http://ns.adobe.com/Flows/1.0/">
]>
<svg version="1.1"
	 xmlns="http://www.w3.org/2000/svg" xmlns:xlink="http://www.w3.org/1999/xlink" xmlns:a="http://ns.adobe.com/AdobeSVGViewerExtensions/3.0/"
	 x="0px" y="0px" width="9px" height="13px" viewBox="0 0 9 13" overflow="visible" enable-background="new 0 0 9 13"
	 xml:space="preserve">
<defs>
</defs>
<path fill-rule="evenodd" clip-rule="evenodd" fill="#FFFFFF" d="M4.48,7.37c-1.58,0-2.88-1.3-2.88-2.89S2.9,1.6,4.48,1.6
	c1.589,0,2.89,1.29,2.89,2.88S6.069,7.37,4.48,7.37z M4.48,0C2.01,0,0,2.01,0,4.48c0,0.2,0.02,0.38,0.04,0.56
	c0.38,3.5,4.15,7.54,4.15,7.54c0.07,0.08,0.13,0.12,0.2,0.16l0.13,0.039l0.12-0.039c0.07-0.04,0.13-0.08,0.2-0.16
	c0,0,3.721-4.04,4.091-7.54C8.95,4.86,8.97,4.67,8.97,4.48C8.97,2.01,6.96,0,4.48,0z"/>
</svg>
