<?xml version="1.0" encoding="utf-8"?>
<!-- Generator: Adobe Illustrator 15.1.0, SVG Export Plug-In  -->
<!DOCTYPE svg PUBLIC "-//W3C//DTD SVG 1.1//EN" "http://www.w3.org/Graphics/SVG/1.1/DTD/svg11.dtd" [
	<!ENTITY ns_flows "http://ns.adobe.com/Flows/1.0/">
]>
<svg version="1.1"
	 xmlns="http://www.w3.org/2000/svg" xmlns:xlink="http://www.w3.org/1999/xlink" xmlns:a="http://ns.adobe.com/AdobeSVGViewerExtensions/3.0/"
	 x="0px" y="0px" width="30px" height="30px" viewBox="0 0 30 30" overflow="visible" enable-background="new 0 0 30 30"
	 xml:space="preserve">
<defs>
</defs>
<path fill-rule="evenodd" clip-rule="evenodd" fill="#FFFFFF" d="M18.561,12.7l-0.4,2.65h-2.21v7.15h-2.6v-7.15h-1.91V12.7h1.91
	v-2.06c0-1.22,0.6-3.14,3.24-3.14l1.93,0.01v2.57h-1.68c-0.29,0-0.89,0.14-0.89,0.72v1.9H18.561z M15,2.34
	C8.01,2.34,2.34,8.01,2.34,15S8.01,27.66,15,27.66S27.66,21.99,27.66,15S21.99,2.34,15,2.34z M15,30C6.72,30,0,23.28,0,15
	C0,6.72,6.72,0,15,0c8.28,0,15,6.72,15,15C30,23.28,23.28,30,15,30z"/>
</svg>
