<?xml version="1.0" encoding="utf-8"?>
<!-- Generator: Adobe Illustrator 15.1.0, SVG Export Plug-In  -->
<!DOCTYPE svg PUBLIC "-//W3C//DTD SVG 1.1//EN" "http://www.w3.org/Graphics/SVG/1.1/DTD/svg11.dtd" [
	<!ENTITY ns_flows "http://ns.adobe.com/Flows/1.0/">
]>
<svg version="1.1"
	 xmlns="http://www.w3.org/2000/svg" xmlns:xlink="http://www.w3.org/1999/xlink" xmlns:a="http://ns.adobe.com/AdobeSVGViewerExtensions/3.0/"
	 x="0px" y="0px" width="16px" height="13px" viewBox="0 0 16 13" overflow="visible" enable-background="new 0 0 16 13"
	 xml:space="preserve">
<defs>
</defs>
<path fill-rule="evenodd" clip-rule="evenodd" fill="#FFFFFF" d="M2.871,12.323l2.56-1.199c0.18-0.08,0.38-0.011,0.46,0.17
	c0.07,0.18-0.01,0.38-0.18,0.47l-2.56,1.211c-0.18,0.079-0.39,0-0.47-0.171C2.601,12.624,2.681,12.403,2.871,12.323z M2,10.374
	l2.92-1.32c0.17-0.08,0.38,0,0.45,0.17c0.08,0.18,0,0.39-0.18,0.47l-2.9,1.331c-0.19,0.08-0.4,0.01-0.48-0.181
	C1.73,10.664,1.811,10.454,2,10.374z M1.11,8.394l3.28-1.44c0.18-0.07,0.39,0.01,0.46,0.19c0.08,0.179,0,0.39-0.18,0.469l-3.26,1.44
	c-0.18,0.08-0.4,0-0.48-0.18C0.851,8.684,0.931,8.473,1.11,8.394z M4.15,5.503l-3.63,1.55c-0.19,0.08-0.41,0-0.49-0.19
	c-0.08-0.19,0-0.4,0.19-0.48l3.64-1.54c0.18-0.07,0.39,0.01,0.47,0.2C4.411,5.224,4.331,5.434,4.15,5.503z M6.03,5.293
	c1.79,0.73,3.74,1.53,4.321,1.75c0.439,0.17,0.939-0.04,1.219-0.53c0.351-0.59,1.48-2.42,2.541-4.15l0.439-0.74
	c0.07-0.11,0.2-0.16,0.32-0.13c0.12,0.03,0.21,0.14,0.24,0.27l0.87,4.73c0.109,0.6-0.19,1.22-0.7,1.47l-7.22,3.439
	c-0.62,0.301-1.37,0.021-1.65-0.629c-0.03-0.081-0.06-0.17-0.08-0.261l-1-4.93c-0.03-0.12,0.02-0.25,0.11-0.34
	c0.1-0.08,0.23-0.1,0.35-0.05L6.03,5.293z M14.431,0.613l-0.761,1.23c-1.09,1.77-2.28,3.7-2.64,4.31
	c-0.05,0.09-0.11,0.15-0.131,0.17c-0.029,0.03-0.06,0.05-0.1,0.07c-0.069,0.03-0.16,0.04-0.239,0.01
	C10,6.184,8.05,5.374,6.291,4.644l-0.81-0.34c-0.1-0.04-0.17-0.11-0.2-0.21c-0.04-0.09-0.03-0.2,0.01-0.29
	c0.15-0.28,0.39-0.5,0.67-0.61l7.439-3.11c0.29-0.12,0.601-0.11,0.881,0.03c0.09,0.04,0.15,0.12,0.18,0.22
	C14.491,0.434,14.481,0.533,14.431,0.613z"/>
</svg>
