<?xml version="1.0" encoding="utf-8"?>
<!-- Generator: Adobe Illustrator 15.1.0, SVG Export Plug-In  -->
<!DOCTYPE svg PUBLIC "-//W3C//DTD SVG 1.1//EN" "http://www.w3.org/Graphics/SVG/1.1/DTD/svg11.dtd" [
	<!ENTITY ns_flows "http://ns.adobe.com/Flows/1.0/">
]>
<svg version="1.1"
	 xmlns="http://www.w3.org/2000/svg" xmlns:xlink="http://www.w3.org/1999/xlink" xmlns:a="http://ns.adobe.com/AdobeSVGViewerExtensions/3.0/"
	 x="0px" y="0px" width="30px" height="30px" viewBox="0 0 30 30" overflow="visible" enable-background="new 0 0 30 30"
	 xml:space="preserve">
<defs>
</defs>
<path fill-rule="evenodd" clip-rule="evenodd" fill="#FFFFFF" d="M15,27.66C8.01,27.66,2.34,21.99,2.34,15S8.01,2.34,15,2.34
	S27.66,8.01,27.66,15S21.99,27.66,15,27.66z M15,0C6.72,0,0,6.72,0,15c0,8.28,6.72,15,15,15c8.28,0,15-6.72,15-15
	C30,6.72,23.28,0,15,0z M12.1,14.22h5.089V15c0,2.76-2.279,5-5.089,5S7,17.76,7,15s2.29-5,5.1-5c1.13,0,2.2,0.36,3.1,1.04
	l-0.97,1.23c-0.62-0.46-1.35-0.71-2.13-0.71c-1.94,0-3.51,1.54-3.51,3.44c0,1.899,1.57,3.439,3.51,3.439
	c1.65,0,3.05-1.14,3.41-2.659H12.1V14.22z M21.61,14.22H23v1.56h-1.39v1.359H20.02V15.78h-1.39v-1.56h1.39v-1.36h1.591V14.22z"/>
</svg>
